<svg width="25" height="26" viewBox="0 0 25 26" fill="none" xmlns="http://www.w3.org/2000/svg">
<path d="M21.0896 0.100342H2.67065L2.53882 0.111084C2.279 0.157927 2.04719 0.342778 1.9353 0.587646L1.89038 0.7146L1.8894 0.715576L0.124756 7.71265L0.106201 7.81616C0.102048 7.85082 0.10028 7.88573 0.100342 7.92065V24.4646C0.100384 24.9009 0.47739 25.2995 0.906006 25.2996H23.4939C23.9225 25.2995 24.2995 24.9009 24.2996 24.4646V15.6414C24.2995 15.205 23.9225 14.8055 23.4939 14.8054H14.0642V13.0671C14.0673 12.668 13.7601 12.2905 13.3728 12.2332H13.3708C13.1823 12.2088 12.9872 12.2563 12.8289 12.364L8.94604 14.9373C8.71156 15.0927 8.60229 15.3734 8.60229 15.6414C8.60236 15.9092 8.71179 16.1891 8.94604 16.3445L12.8289 18.9187C13.0805 19.083 13.3923 19.0488 13.6326 18.9109C13.873 18.7728 14.0631 18.5187 14.0642 18.2146V16.4763H22.6882V23.6296H1.71167V8.75562H22.6882V11.9636L22.6912 12.0457C22.7296 12.453 23.0885 12.8102 23.4939 12.8103C23.9264 12.8103 24.3054 12.4038 24.2996 11.9636V7.91968C24.2991 7.82258 24.2822 7.72571 24.2498 7.63452L21.7791 0.637451V0.636475C21.6731 0.346348 21.4009 0.129186 21.0994 0.100342L21.0896 0.0993652V0.100342ZM12.4529 16.6951L10.8689 15.6404L12.4529 14.5857V16.6951ZM11.7468 7.08569H1.94995L3.28979 1.77026H11.7468V7.08569ZM22.3386 7.08569H13.3591V1.77026H20.4558L22.3386 7.08569Z" fill="#9F9F9F" stroke="#9F9F9F" stroke-width="0.2"/>
</svg>
